<svg width="16" height="16" viewBox="0 0 16 16" fill="none" xmlns="http://www.w3.org/2000/svg">
<path d="M13.6667 4.85172L8 7.9999M8 7.9999L2.33331 4.85172M8 7.9999V14.3332M14 10.7056V5.29419C14 5.06576 14 4.95155 13.9663 4.84968C13.9366 4.75956 13.8879 4.67684 13.8236 4.60705C13.7509 4.52816 13.6511 4.47269 13.4513 4.36176L8.518 1.62102C8.32893 1.51598 8.2344 1.46346 8.13433 1.44286C8.04567 1.42464 7.95433 1.42464 7.86573 1.44286C7.7656 1.46346 7.67107 1.51598 7.482 1.62102L2.54865 4.36176C2.34897 4.47269 2.24913 4.52816 2.17642 4.60705C2.11211 4.67684 2.06343 4.75956 2.03365 4.84968C2 4.95155 2 5.06576 2 5.29419V10.7056C2 10.934 2 11.0482 2.03365 11.1501C2.06343 11.2402 2.11211 11.323 2.17642 11.3927C2.24913 11.4716 2.34897 11.5271 2.54865 11.638L7.482 14.3788C7.67107 14.4838 7.7656 14.5363 7.86573 14.5569C7.95433 14.5752 8.04567 14.5752 8.13433 14.5569C8.2344 14.5363 8.32893 14.4838 8.518 14.3788L13.4513 11.638C13.6511 11.5271 13.7509 11.4716 13.8236 11.3927C13.8879 11.323 13.9366 11.2402 13.9663 11.1501C14 11.0482 14 10.934 14 10.7056Z" stroke="white" stroke-width="1.33333" stroke-linecap="round" stroke-linejoin="round"/>
</svg>
