<svg width="16" height="16" viewBox="0 0 16 16" fill="none" xmlns="http://www.w3.org/2000/svg">
<path d="M12.6429 9V3.78571C12.6429 2.24721 11.3956 1 9.85714 1H4.28571C2.74721 1 1.5 2.24721 1.5 3.78571V11.2143C1.5 12.7528 2.74721 14 4.28571 14H10.5" stroke="white" stroke-width="0.928571"/>
<path d="M7.09961 5.5L5.59961 7.5L7.09961 9.5L8.59961 7.5L7.09961 5.5Z" stroke="white" stroke-width="0.8" stroke-linejoin="round"/>
<path d="M10.5 10L10.5024 13.9538C10.5024 14.5061 11.6217 14.9538 13.0024 14.9538C14.3832 14.9538 15.5024 14.5061 15.5024 13.9538L15.5 10M10.5 10C10.5 10.5523 11.6193 11 13 11C14.3807 11 15.5 10.5523 15.5 10M10.5 10C10.5 9.44772 11.6193 9 13 9C14.3807 9 15.5 9.44772 15.5 10M10.5024 11.9538C10.5024 12.5061 11.6217 12.9538 13.0024 12.9538C14.3832 12.9538 15.5024 12.5061 15.5024 11.9538" stroke="white" stroke-width="0.8"/>
</svg>
