<svg width="27" height="27" viewBox="0 0 27 27" fill="none" xmlns="http://www.w3.org/2000/svg">
<g clip-path="url(#clip0_98_1659)">
<path d="M19.8678 3.31104H6.62277C5.74458 3.31104 4.90235 3.6599 4.28137 4.28088C3.66039 4.90186 3.31152 5.74409 3.31152 6.62229V19.8673C3.31152 20.7455 3.66039 21.5877 4.28137 22.2087C4.90235 22.8297 5.74458 23.1785 6.62277 23.1785H19.8678C20.746 23.1785 21.5882 22.8297 22.2092 22.2087C22.8302 21.5877 23.179 20.7455 23.179 19.8673V6.62229C23.179 5.74409 22.8302 4.90186 22.2092 4.28088C21.5882 3.6599 20.746 3.31104 19.8678 3.31104ZM9.52012 18.2117C9.27453 18.2117 9.03446 18.1388 8.83026 18.0024C8.62606 17.866 8.4669 17.672 8.37292 17.4451C8.27894 17.2182 8.25435 16.9686 8.30226 16.7277C8.35017 16.4868 8.46843 16.2656 8.64209 16.0919C8.81575 15.9183 9.037 15.8 9.27787 15.7521C9.51874 15.7042 9.76841 15.7288 9.9953 15.8227C10.2222 15.9167 10.4161 16.0759 10.5526 16.2801C10.689 16.4843 10.7618 16.7244 10.7618 16.9699C10.7618 17.2993 10.631 17.6151 10.3981 17.848C10.1653 18.0808 9.84944 18.2117 9.52012 18.2117ZM9.52012 10.7613C9.27453 10.7613 9.03446 10.6885 8.83026 10.5521C8.62606 10.4156 8.4669 10.2217 8.37292 9.99481C8.27894 9.76792 8.25435 9.51825 8.30226 9.27738C8.35017 9.03651 8.46843 8.81526 8.64209 8.6416C8.81575 8.46794 9.037 8.34968 9.27787 8.30177C9.51874 8.25386 9.76841 8.27845 9.9953 8.37243C10.2222 8.46641 10.4161 8.62557 10.5526 8.82977C10.689 9.03397 10.7618 9.27404 10.7618 9.51963C10.7618 9.84895 10.631 10.1648 10.3981 10.3977C10.1653 10.6305 9.84944 10.7613 9.52012 10.7613ZM13.2453 14.4865C12.9997 14.4865 12.7596 14.4137 12.5554 14.2772C12.3512 14.1408 12.1921 13.9469 12.0981 13.72C12.0041 13.4931 11.9795 13.2434 12.0274 13.0025C12.0753 12.7617 12.1936 12.5404 12.3672 12.3668C12.5409 12.1931 12.7622 12.0748 13.003 12.0269C13.2439 11.979 13.4936 12.0036 13.7205 12.0976C13.9474 12.1916 14.1413 12.3507 14.2777 12.5549C14.4142 12.7591 14.487 12.9992 14.487 13.2448C14.487 13.5741 14.3562 13.8899 14.1233 14.1228C13.8904 14.3557 13.5746 14.4865 13.2453 14.4865ZM16.9704 18.2117C16.7248 18.2117 16.4848 18.1388 16.2806 18.0024C16.0764 17.866 15.9172 17.672 15.8232 17.4451C15.7292 17.2182 15.7047 16.9686 15.7526 16.7277C15.8005 16.4868 15.9187 16.2656 16.0924 16.0919C16.2661 15.9183 16.4873 15.8 16.7282 15.7521C16.9691 15.7042 17.2187 15.7288 17.4456 15.8227C17.6725 15.9167 17.8664 16.0759 18.0029 16.2801C18.1393 16.4843 18.2121 16.7244 18.2121 16.9699C18.2121 17.2993 18.0813 17.6151 17.8485 17.848C17.6156 18.0808 17.2998 18.2117 16.9704 18.2117ZM16.9704 10.7613C16.7248 10.7613 16.4848 10.6885 16.2806 10.5521C16.0764 10.4156 15.9172 10.2217 15.8232 9.99481C15.7292 9.76792 15.7047 9.51825 15.7526 9.27738C15.8005 9.03651 15.9187 8.81526 16.0924 8.6416C16.2661 8.46794 16.4873 8.34968 16.7282 8.30177C16.9691 8.25386 17.2187 8.27845 17.4456 8.37243C17.6725 8.46641 17.8664 8.62557 18.0029 8.82977C18.1393 9.03397 18.2121 9.27404 18.2121 9.51963C18.2121 9.84895 18.0813 10.1648 17.8485 10.3977C17.6156 10.6305 17.2998 10.7613 16.9704 10.7613Z" fill="#9DA3AF"/>
</g>
<defs>
<clipPath id="clip0_98_1659">
<rect width="26.49" height="26.49" fill="white"/>
</clipPath>
</defs>
</svg>
