<svg width="24" height="24" viewBox="0 0 24 24" fill="none" xmlns="http://www.w3.org/2000/svg">
<path d="M4.55014 19C3.70014 19 3.0418 18.7042 2.57514 18.1125C2.10847 17.5208 1.93347 16.8 2.05014 15.95L3.10014 8.45C3.25014 7.45 3.69597 6.625 4.43764 5.975C5.1793 5.325 6.05014 5 7.05014 5H16.9501C17.9501 5 18.821 5.325 19.5626 5.975C20.3043 6.625 20.7501 7.45 20.9001 8.45L21.9501 15.95C22.0668 16.8 21.8918 17.5208 21.4251 18.1125C20.9585 18.7042 20.3001 19 19.4501 19C19.1001 19 18.7751 18.9375 18.4751 18.8125C18.1751 18.6875 17.9001 18.5 17.6501 18.25L15.4001 16H8.60014L6.35014 18.25C6.10014 18.5 5.82514 18.6875 5.52514 18.8125C5.22514 18.9375 4.90014 19 4.55014 19ZM17.0001 13C17.2835 13 17.521 12.9042 17.7126 12.7125C17.9043 12.5208 18.0001 12.2833 18.0001 12C18.0001 11.7167 17.9043 11.4792 17.7126 11.2875C17.521 11.0958 17.2835 11 17.0001 11C16.7168 11 16.4793 11.0958 16.2876 11.2875C16.096 11.4792 16.0001 11.7167 16.0001 12C16.0001 12.2833 16.096 12.5208 16.2876 12.7125C16.4793 12.9042 16.7168 13 17.0001 13ZM15.0001 10C15.2835 10 15.521 9.90417 15.7126 9.7125C15.9043 9.52083 16.0001 9.28333 16.0001 9C16.0001 8.71667 15.9043 8.47917 15.7126 8.2875C15.521 8.09583 15.2835 8 15.0001 8C14.7168 8 14.4793 8.09583 14.2876 8.2875C14.096 8.47917 14.0001 8.71667 14.0001 9C14.0001 9.28333 14.096 9.52083 14.2876 9.7125C14.4793 9.90417 14.7168 10 15.0001 10ZM7.75014 13H9.25014V11.25H11.0001V9.75H9.25014V8H7.75014V9.75H6.00014V11.25H7.75014V13Z" fill="white"/>
</svg>
