<svg width="26" height="27" viewBox="0 0 26 27" fill="none" xmlns="http://www.w3.org/2000/svg">
<path d="M12.8466 2.46533C10.7822 2.46533 8.76411 3.09191 7.04761 4.26583C5.3311 5.43974 3.99325 7.10828 3.20323 9.06043C2.41321 11.0126 2.20651 13.1607 2.60926 15.2331C3.01201 17.3055 4.00612 19.2091 5.46588 20.7032C6.92565 22.1973 8.7855 23.2148 10.8103 23.627C12.835 24.0393 14.9337 23.8277 16.841 23.0191C18.7483 22.2105 20.3784 20.8412 21.5254 19.0843C22.6723 17.3274 23.2845 15.2618 23.2845 13.1488C23.2816 10.3163 22.1809 7.60066 20.2241 5.59776C18.2672 3.59486 15.614 2.46832 12.8466 2.46533ZM14.4524 18.9015H13.6495V19.7233C13.6495 19.9412 13.5649 20.1503 13.4143 20.3044C13.2638 20.4585 13.0595 20.5451 12.8466 20.5451C12.6336 20.5451 12.4294 20.4585 12.2788 20.3044C12.1283 20.1503 12.0437 19.9412 12.0437 19.7233V18.9015H11.2408C10.389 18.9015 9.57207 18.5551 8.96977 17.9387C8.36747 17.3222 8.0291 16.4861 8.0291 15.6143C8.0291 15.3963 8.11369 15.1873 8.26427 15.0331C8.41484 14.879 8.61907 14.7924 8.83201 14.7924C9.04496 14.7924 9.24918 14.879 9.39976 15.0331C9.55034 15.1873 9.63493 15.3963 9.63493 15.6143C9.63493 16.0502 9.80411 16.4682 10.1053 16.7765C10.4064 17.0847 10.8149 17.2579 11.2408 17.2579H14.4524C14.8783 17.2579 15.2868 17.0847 15.5879 16.7765C15.8891 16.4682 16.0582 16.0502 16.0582 15.6143C16.0582 15.1783 15.8891 14.7603 15.5879 14.452C15.2868 14.1438 14.8783 13.9706 14.4524 13.9706H11.6422C10.7904 13.9706 9.97353 13.6243 9.37123 13.0078C8.76893 12.3914 8.43056 11.5552 8.43056 10.6834C8.43056 9.81158 8.76893 8.97546 9.37123 8.35898C9.97353 7.74251 10.7904 7.39618 11.6422 7.39618H12.0437V6.57437C12.0437 6.35641 12.1283 6.14738 12.2788 5.99326C12.4294 5.83915 12.6336 5.75256 12.8466 5.75256C13.0595 5.75256 13.2638 5.83915 13.4143 5.99326C13.5649 6.14738 13.6495 6.35641 13.6495 6.57437V7.39618H14.051C14.9027 7.39618 15.7196 7.74251 16.3219 8.35898C16.9242 8.97546 17.2626 9.81158 17.2626 10.6834C17.2626 10.9014 17.178 11.1104 17.0274 11.2645C16.8769 11.4186 16.6726 11.5052 16.4597 11.5052C16.2468 11.5052 16.0425 11.4186 15.892 11.2645C15.7414 11.1104 15.6568 10.9014 15.6568 10.6834C15.6568 10.2475 15.4876 9.82943 15.1865 9.5212C14.8853 9.21296 14.4769 9.03979 14.051 9.03979H11.6422C11.2163 9.03979 10.8079 9.21296 10.5067 9.5212C10.2056 9.82943 10.0364 10.2475 10.0364 10.6834C10.0364 11.1193 10.2056 11.5374 10.5067 11.8456C10.8079 12.1539 11.2163 12.327 11.6422 12.327H14.4524C15.3042 12.327 16.1211 12.6734 16.7234 13.2898C17.3257 13.9063 17.6641 14.7424 17.6641 15.6143C17.6641 16.4861 17.3257 17.3222 16.7234 17.9387C16.1211 18.5551 15.3042 18.9015 14.4524 18.9015Z" fill="#9DA3AF"/>
</svg>
