<svg width="24" height="24" viewBox="0 0 24 24" fill="none" xmlns="http://www.w3.org/2000/svg">
<g clip-path="url(#clip0_6_12412)">
<path d="M20 18V19C20 20.1 19.1 21 18 21H4C2.89 21 2 20.1 2 19V5C2 3.9 2.89 3 4 3H18C19.1 3 20 3.9 20 5V6H11C9.89 6 9 6.9 9 8V16C9 17.1 9.89 18 11 18H20ZM10.5 16.5H16H20V7.5H16H10.5V16.5ZM15 13.5C14.17 13.5 13.5 12.83 13.5 12C13.5 11.17 14.17 10.5 15 10.5C15.83 10.5 16.5 11.17 16.5 12C16.5 12.83 15.83 13.5 15 13.5Z" fill="white"/>
</g>
<defs>
<clipPath id="clip0_6_12412">
<rect width="24" height="24" fill="white"/>
</clipPath>
</defs>
</svg>
