<svg width="26" height="27" viewBox="0 0 26 27" fill="none" xmlns="http://www.w3.org/2000/svg">
<path d="M23.3836 6.68359H20.9468V4.9668C20.9468 4.73914 20.8613 4.5208 20.7089 4.35982C20.5566 4.19884 20.35 4.1084 20.1346 4.1084H5.51412C5.29869 4.1084 5.0921 4.19884 4.93977 4.35982C4.78744 4.5208 4.70187 4.73914 4.70187 4.9668V6.68359H2.26512C1.83428 6.68359 1.42108 6.86447 1.11643 7.18643C0.811777 7.50839 0.640625 7.94507 0.640625 8.40039V10.1172C0.640625 11.2555 1.0685 12.3472 1.83014 13.1521C2.20726 13.5506 2.65496 13.8668 3.1477 14.0825C3.64043 14.2982 4.16854 14.4092 4.70187 14.4092H5.07246C5.55092 16.0116 6.46319 17.4307 7.69653 18.4912C8.92987 19.5517 10.4302 20.207 12.0121 20.3761V22.9932H9.57536C9.35994 22.9932 9.15334 23.0836 9.00101 23.2446C8.84869 23.4056 8.76311 23.6239 8.76311 23.8516C8.76311 24.0792 8.84869 24.2976 9.00101 24.4585C9.15334 24.6195 9.35994 24.7099 9.57536 24.7099H16.0733C16.2888 24.7099 16.4954 24.6195 16.6477 24.4585C16.8 24.2976 16.8856 24.0792 16.8856 23.8516C16.8856 23.6239 16.8 23.4056 16.6477 23.2446C16.4954 23.0836 16.2888 22.9932 16.0733 22.9932H13.6366V20.3729C16.8795 20.0263 19.5701 17.6217 20.5488 14.4092H20.9468C22.0239 14.4092 23.0569 13.957 23.8186 13.1521C24.5802 12.3472 25.0081 11.2555 25.0081 10.1172V8.40039C25.0081 7.94507 24.8369 7.50839 24.5323 7.18643C24.2276 6.86447 23.8144 6.68359 23.3836 6.68359ZM4.70187 12.6924C4.0556 12.6924 3.43581 12.4211 2.97883 11.9381C2.52185 11.4552 2.26512 10.8002 2.26512 10.1172V8.40039H4.70187V11.834C4.70187 12.1201 4.71507 12.4062 4.74146 12.6924H4.70187ZM23.3836 10.1172C23.3836 10.8002 23.1269 11.4552 22.6699 11.9381C22.2129 12.4211 21.5931 12.6924 20.9468 12.6924H20.8961C20.9294 12.3753 20.9464 12.0565 20.9468 11.7374V8.40039H23.3836V10.1172Z" fill="#9DA3AF"/>
</svg>
