<svg width="20" height="20" viewBox="0 0 20 20" fill="none" xmlns="http://www.w3.org/2000/svg">
<path d="M4.1665 16.6665V14.9998H15.8332V16.6665H4.1665ZM4.1665 13.7498L3.104 7.06234C3.07623 7.06234 3.04498 7.06581 3.01025 7.07275C2.97553 7.0797 2.94428 7.08317 2.9165 7.08317C2.56928 7.08317 2.27414 6.96164 2.03109 6.71859C1.78803 6.47553 1.6665 6.18039 1.6665 5.83317C1.6665 5.48595 1.78803 5.19081 2.03109 4.94775C2.27414 4.7047 2.56928 4.58317 2.9165 4.58317C3.26373 4.58317 3.55886 4.7047 3.80192 4.94775C4.04498 5.19081 4.1665 5.48595 4.1665 5.83317C4.1665 5.93039 4.15609 6.02067 4.13525 6.104C4.11442 6.18734 4.09011 6.26373 4.06234 6.33317L6.6665 7.49984L9.27067 3.93734C9.11789 3.82623 8.99289 3.68039 8.89567 3.49984C8.79845 3.31928 8.74984 3.12484 8.74984 2.9165C8.74984 2.56928 8.87136 2.27414 9.11442 2.03109C9.35748 1.78803 9.65261 1.6665 9.99984 1.6665C10.3471 1.6665 10.6422 1.78803 10.8853 2.03109C11.1283 2.27414 11.2498 2.56928 11.2498 2.9165C11.2498 3.12484 11.2012 3.31928 11.104 3.49984C11.0068 3.68039 10.8818 3.82623 10.729 3.93734L13.3332 7.49984L15.9373 6.33317C15.9096 6.26373 15.8853 6.18734 15.8644 6.104C15.8436 6.02067 15.8332 5.93039 15.8332 5.83317C15.8332 5.48595 15.9547 5.19081 16.1978 4.94775C16.4408 4.7047 16.7359 4.58317 17.0832 4.58317C17.4304 4.58317 17.7255 4.7047 17.9686 4.94775C18.2116 5.19081 18.3332 5.48595 18.3332 5.83317C18.3332 6.18039 18.2116 6.47553 17.9686 6.71859C17.7255 6.96164 17.4304 7.08317 17.0832 7.08317C17.0554 7.08317 17.0241 7.0797 16.9894 7.07275C16.9547 7.06581 16.9234 7.06234 16.8957 7.06234L15.8332 13.7498H4.1665Z" fill="white"/>
</svg>
