<svg width="133" height="32" viewBox="0 0 133 32" fill="none" xmlns="http://www.w3.org/2000/svg">
<path d="M85.4239 7.40156C85.5253 7.30766 85.6266 7.21376 85.7834 7.10173C86.7855 7.07696 87.7323 7.07032 88.6791 7.06367C88.7091 7.0821 88.7392 7.10054 88.8073 7.14129C88.9439 7.29774 89.0424 7.43186 89.1289 7.59496C89.1289 7.87544 89.1408 8.12694 89.1401 8.40329C89.1286 8.46401 89.1296 8.49989 89.1149 8.55088C89.1755 8.55866 89.2517 8.55132 89.3514 8.53086C90.7112 6.84395 93.1213 6.42127 95.1407 6.92301C96.4079 7.23788 97.3673 7.96626 98.0292 9.0945C98.0594 9.14604 98.265 9.16991 98.3077 9.1266C98.5591 8.87178 98.7864 8.59318 99.0486 8.31357C100.081 7.38699 101.265 6.85294 102.618 6.7516C104.056 6.64388 105.394 6.95442 106.546 7.87704C107.352 8.52228 107.884 9.36152 108.261 10.3307C108.275 10.3941 108.292 10.4348 108.311 10.5039C108.347 10.6195 108.382 10.7066 108.412 10.8228C108.437 10.9615 108.467 11.0714 108.494 11.1998C108.492 11.2455 108.504 11.2669 108.516 11.3C108.531 11.3756 108.557 11.434 108.578 11.5117C108.571 11.5592 108.579 11.5837 108.584 11.6291C108.598 11.8167 108.627 11.9799 108.651 12.161C108.645 12.2051 108.653 12.2279 108.655 12.277C108.65 12.5619 108.67 12.817 108.67 13.0722C108.678 15.912 108.685 18.7517 108.685 21.5915C108.685 21.871 108.643 22.1505 108.599 22.4463C108.46 22.5655 108.341 22.6684 108.184 22.7683C107.347 22.7697 106.547 22.7881 105.748 22.7701C105.493 22.7644 105.24 22.6622 104.986 22.6009C104.987 22.5978 104.98 22.5988 104.975 22.575C104.924 22.5068 104.879 22.4624 104.833 22.3982C104.831 22.3784 104.8 22.3537 104.803 22.3313C104.782 22.271 104.758 22.2331 104.743 22.1578C104.751 19.1517 104.752 16.1829 104.748 13.2142C104.748 13.0568 104.708 12.8994 104.697 12.7128C104.664 12.488 104.62 12.2923 104.58 12.0667C104.565 12.0028 104.546 11.9688 104.529 11.9073C104.475 11.7471 104.417 11.6145 104.36 11.4686C104.359 11.4554 104.334 11.4476 104.332 11.4208C104.293 11.3354 104.256 11.2768 104.22 11.1974C104.202 11.1594 104.181 11.1423 104.157 11.1023C104.11 11.0379 104.068 10.9964 104.023 10.9579C104.021 10.9609 104.028 10.9576 104.024 10.9321C103.969 10.8625 103.92 10.8184 103.863 10.7475C103.493 10.523 103.13 10.3253 102.754 10.1027C102.652 10.0688 102.563 10.0598 102.444 10.0392C102.328 10.0256 102.242 10.0236 102.134 10.0019C101.897 9.99827 101.681 10.0144 101.442 10.0269C101.372 10.033 101.325 10.0426 101.261 10.0392C101.184 10.0557 101.124 10.0851 101.034 10.1147C100.774 10.2411 100.542 10.3675 100.286 10.4987C100.219 10.5471 100.175 10.5908 100.109 10.6393C100.049 10.6884 100.01 10.7327 99.9467 10.7832C99.8832 10.844 99.845 10.8986 99.8111 10.9549C99.8154 10.9567 99.8105 10.9488 99.7874 10.9565C99.7294 11.0176 99.6945 11.0709 99.6365 11.1351C99.5649 11.2529 99.5165 11.3598 99.4461 11.4815C99.4019 11.561 99.3797 11.6257 99.339 11.7082C99.3162 11.7739 99.312 11.8219 99.286 11.8893C99.2261 12.1078 99.1879 12.3069 99.1377 12.5191C99.1164 12.5586 99.1231 12.58 99.1244 12.6218C99.0744 12.981 99.0215 13.3148 99.0209 13.6486C99.0153 16.5229 99.0191 19.3973 99.0035 22.2839C98.9869 22.3223 98.9869 22.3484 98.9632 22.3883C98.898 22.4615 98.8566 22.5209 98.8151 22.5804C98.6058 22.6477 98.3982 22.7664 98.187 22.7731C97.4361 22.7971 96.6841 22.7799 95.9325 22.7843C95.5762 22.7864 95.3094 22.6533 95.1447 22.2585C95.1247 22.1183 95.1165 22.038 95.1165 21.9576C95.1135 19.2442 95.1125 16.5308 95.1067 13.8173C95.1063 13.6196 95.0719 13.422 95.0533 13.2243C95.0986 12.2234 94.8037 11.3591 94.0222 10.6359C93.9525 10.5539 93.8951 10.5211 93.8376 10.4883C93.6023 10.369 93.3669 10.2496 93.0914 10.1065C92.9882 10.0744 92.9252 10.0661 92.8622 10.0578C92.7783 10.0411 92.6943 10.0243 92.5543 9.99256C92.2575 9.99709 92.0167 10.0167 91.7759 10.0362C91.7268 10.0363 91.6777 10.0364 91.5899 10.0331C91.4911 10.058 91.4309 10.0864 91.3707 10.1148C91.2979 10.1334 91.2251 10.1519 91.1061 10.1831C91.0109 10.2313 90.9618 10.2668 90.9127 10.3024C90.8218 10.3496 90.7308 10.3969 90.6038 10.4714C90.5242 10.5424 90.4807 10.5863 90.4373 10.6302C90.4373 10.6302 90.4456 10.6347 90.4193 10.6368C90.3536 10.6896 90.3141 10.7402 90.2746 10.7908C90.2746 10.7908 90.283 10.7956 90.2564 10.797C90.1909 10.8498 90.1521 10.9013 90.1132 10.9527C90.1132 10.9527 90.1219 10.9569 90.0961 10.96C90.037 11.0173 90.0037 11.0715 89.9704 11.1256C89.9113 11.2035 89.8523 11.2814 89.7685 11.399C89.7178 11.5226 89.6918 11.6067 89.6658 11.6907C89.6346 11.7546 89.6034 11.8185 89.5571 11.9306C89.5117 12.1254 89.4814 12.2722 89.4511 12.4189C89.4354 12.5064 89.4198 12.594 89.394 12.7403C89.363 13.1468 89.3247 13.4947 89.3241 13.8427C89.3197 16.4477 89.3289 19.0528 89.3151 21.6578C89.3135 21.9672 89.199 22.2759 89.1368 22.585C89.05 22.6343 88.9631 22.6836 88.8194 22.7437C87.789 22.7581 86.8155 22.7618 85.842 22.7654C85.7226 22.6647 85.6031 22.564 85.4621 22.4237C85.4118 22.3469 85.383 22.3097 85.3542 22.2724C85.3537 17.3961 85.3531 12.5198 85.3699 7.5915C85.3994 7.49346 85.4116 7.44751 85.4239 7.40156Z" fill="#FBFBFB"/>
<path d="M55.5903 9.63324C55.5918 8.98048 55.5932 8.32771 55.612 7.62762C55.6481 7.51887 55.6668 7.45745 55.6855 7.39603C55.7028 7.37273 55.72 7.34944 55.7683 7.30061C55.8604 7.2185 55.9215 7.16193 55.9826 7.10536C55.9826 7.10536 56.0126 7.09859 56.0482 7.09257C56.123 7.06146 56.1621 7.03638 56.2358 7.01152C56.4086 7.00748 56.5468 7.00324 56.7077 7.01775C56.9035 7.02403 57.0765 7.01155 57.2831 7.00346C57.4292 7.00494 57.5418 7.00203 57.68 7.01816C57.9846 7.02539 58.2635 7.01358 58.5628 7.00218C58.6019 6.98396 58.6205 6.96534 58.6628 6.94238C58.678 6.83795 58.6693 6.73784 58.667 6.62563C58.6775 6.59429 58.6732 6.57712 58.6823 6.53947C58.7091 5.08163 58.7036 3.64617 58.7288 2.21126C58.7334 1.94736 58.8625 1.68564 58.9377 1.42387C58.9411 1.42482 58.9392 1.41788 58.9732 1.41202C60.1216 1.40693 61.2361 1.4077 62.3504 1.41421C62.3502 1.41995 62.3616 1.41882 62.3643 1.44291C62.4129 1.50645 62.459 1.54589 62.5031 1.58817C62.5011 1.59101 62.5071 1.58768 62.5084 1.61198C62.5374 1.67457 62.5651 1.71286 62.5904 1.78907C62.5872 2.83114 62.5824 3.8353 62.5872 4.83941C62.5906 5.54657 62.6071 6.25368 62.619 6.98529C62.6875 7.00537 62.7549 7.00096 62.86 7.00093C64.0044 7.00244 65.1111 6.99957 66.2406 7.01707C66.4082 7.05589 66.5531 7.07433 66.698 7.09277C66.7088 7.10342 66.7196 7.11407 66.7669 7.14205C66.8889 7.26792 66.9745 7.37646 67.06 7.52314C67.0424 8.37137 67.2235 9.19207 66.9068 9.99654C66.8554 10.0468 66.8277 10.0879 66.793 10.1293C66.786 10.1296 66.7794 10.142 66.7516 10.145C66.644 10.1942 66.5643 10.2405 66.4587 10.273C66.3371 10.2661 66.2413 10.273 66.1165 10.2625C64.9959 10.2564 63.9043 10.2677 62.7807 10.2673C62.6948 10.3704 62.5947 10.4848 62.5939 10.5999C62.5832 12.0864 62.5841 13.5731 62.5879 15.0598C62.5895 15.6879 62.6049 16.316 62.6023 16.9783C62.629 17.3184 62.6559 17.6262 62.7078 17.9297C62.8719 18.8887 63.5163 19.4365 64.4901 19.4459C65.1754 19.4525 65.8609 19.4451 66.5463 19.4489C67.0277 19.4515 67.3103 19.6644 67.3278 20.127C67.3547 20.8366 67.3241 21.5485 67.318 22.2594C67.2912 22.3423 67.2645 22.4252 67.2274 22.5367C67.217 22.5653 67.1866 22.585 67.1866 22.585C67.1478 22.6111 67.1089 22.6371 67.0219 22.6797C66.9119 22.7266 66.85 22.7568 66.7882 22.787C66.4095 22.7854 66.0307 22.7839 65.5872 22.7748C65.4814 22.7775 65.4405 22.7875 65.3997 22.7976C65.1332 22.7922 64.8668 22.7868 64.5317 22.7736C64.3178 22.7745 64.1724 22.7833 64.0271 22.7921C63.9672 22.7846 63.9073 22.7771 63.7939 22.7588C63.5414 22.7447 63.3424 22.7414 63.1435 22.7381C63.1224 22.7191 63.0977 22.7104 63.029 22.6951C62.4726 22.5572 61.9567 22.4362 61.4407 22.3152C60.6275 21.8934 59.925 21.3492 59.451 20.4884C59.3964 20.3936 59.3614 20.3416 59.3265 20.2896C59.3151 20.2619 59.3037 20.2343 59.2759 20.165C59.2266 20.0444 59.1935 19.9654 59.1604 19.8865C59.04 19.4625 58.9195 19.0385 58.8011 18.5718C58.7874 18.4852 58.7718 18.4415 58.7561 18.3977C58.7436 18.2024 58.7311 18.007 58.7278 17.7513C58.7349 15.5014 58.7319 13.3118 58.7308 11.1223C58.7304 10.2011 58.7318 10.218 57.7918 10.1957C57.128 10.18 56.4654 10.1108 55.8023 10.0654C55.8023 10.0654 55.7971 10.073 55.8032 10.042C55.7363 9.88507 55.6633 9.75915 55.5903 9.63324Z" fill="#FBFBFB"/>
<path d="M132.49 28.263C132.437 28.3034 132.385 28.3438 132.278 28.4076C131.89 28.4461 131.557 28.4645 131.224 28.4759C130.652 28.4955 130.08 28.5107 129.508 28.5278C129.442 28.5261 129.375 28.5243 129.268 28.5084C129.141 28.4773 129.055 28.4605 128.969 28.4436C128.969 28.4436 128.941 28.4202 128.92 28.3879C128.844 28.3217 128.79 28.2878 128.736 28.2539C128.736 28.2539 128.739 28.2487 128.735 28.2263C128.696 28.1512 128.661 28.0986 128.626 28.046C128.624 27.9958 128.622 27.9456 128.63 27.8556C128.627 27.7436 128.616 27.6714 128.604 27.5992C128.607 26.0105 128.61 24.4217 128.628 22.7756C128.629 22.5951 128.616 22.4719 128.603 22.3486C128.606 22.185 128.609 22.0214 128.625 21.8053C128.627 21.6552 128.615 21.5576 128.604 21.4601C128.615 21.3743 128.627 21.2886 128.646 21.1545C128.594 21.1116 128.535 21.1172 128.476 21.1228C128.2 21.3897 127.923 21.6566 127.607 21.9481C127.523 22.0163 127.48 22.0599 127.437 22.1036C127.347 22.1583 127.257 22.213 127.127 22.2896C127.039 22.3463 126.993 22.3811 126.946 22.416C126.946 22.416 126.959 22.432 126.927 22.4217C126.821 22.4576 126.748 22.5037 126.654 22.5555C126.61 22.5769 126.587 22.5928 126.533 22.6056C125.119 23.1269 123.699 23.1813 122.272 22.8653C121.692 22.7369 121.141 22.4809 120.553 22.2676C120.419 22.1955 120.308 22.1387 120.196 22.0868C120.194 22.0916 120.203 22.0873 120.197 22.0611C120.057 21.9227 119.923 21.8104 119.79 21.6982C119.159 21.0158 118.62 20.2729 118.254 19.3581C118.202 19.2789 118.173 19.2421 118.143 19.2052C118.142 19.1671 118.141 19.129 118.125 19.0427C118.067 18.9035 118.023 18.8124 117.979 18.7212C117.978 18.6828 117.977 18.6443 117.962 18.5547C117.903 18.3606 117.86 18.2178 117.817 18.0749C117.813 18.0361 117.809 17.9973 117.791 17.9085C117.737 17.715 117.698 17.5714 117.659 17.4279C117.658 17.3139 117.657 17.1999 117.643 17.054C117.455 15.4654 117.44 13.903 117.701 12.3616C118.026 10.4472 118.757 8.72812 120.489 7.63302C120.881 7.38547 121.329 7.22822 121.771 7.00826C121.827 6.98792 121.863 6.98872 121.954 6.98609C122.204 6.92814 122.399 6.8736 122.595 6.81907C122.657 6.81921 122.718 6.81935 122.841 6.814C123.638 6.80301 124.375 6.7975 125.112 6.79199C125.171 6.80514 125.231 6.81828 125.343 6.84326C125.542 6.89697 125.689 6.93885 125.836 6.98073C126.377 7.20722 126.956 7.3715 127.447 7.67788C127.929 7.97833 128.32 8.42334 128.811 8.8577C128.798 8.6824 128.79 8.5607 128.77 8.4103C128.773 8.23967 128.811 8.09492 128.796 7.95632C128.749 7.53751 128.902 7.23839 129.329 7.03426C130.296 7.01565 131.212 7.01501 132.128 7.01437C132.165 7.04407 132.202 7.07376 132.274 7.12206C132.357 7.17571 132.406 7.21078 132.459 7.27762C132.513 7.55621 132.606 7.80295 132.606 8.04984C132.617 14.4441 132.62 20.8384 132.616 27.2327C132.615 27.5762 132.533 27.9195 132.49 28.263ZM126.954 10.4319C126.902 10.4098 126.85 10.3878 126.764 10.3249C126.713 10.3147 126.662 10.3044 126.572 10.2487C125.575 9.87416 124.583 9.83068 123.548 10.2988C123.447 10.3588 123.347 10.4188 123.196 10.487C123.147 10.533 123.099 10.5789 122.997 10.6306C122.808 10.8426 122.62 11.0545 122.386 11.2823C122.359 11.3378 122.332 11.3934 122.268 11.4715C122.264 11.4991 122.259 11.5268 122.208 11.59C122.062 12.1087 121.917 12.6275 121.737 13.2013C121.736 13.2649 121.735 13.3285 121.696 13.4431C121.686 13.6669 121.677 13.8908 121.642 14.1834C121.648 14.3781 121.654 14.5728 121.63 14.8174C121.64 15.0098 121.65 15.2022 121.639 15.4561C121.649 15.5189 121.659 15.5817 121.646 15.713C121.686 15.9802 121.726 16.2474 121.743 16.5435C121.736 16.5707 121.744 16.5923 121.744 16.6623C121.919 17.1926 122.094 17.7228 122.275 18.3084C122.621 18.6718 122.917 19.1141 123.326 19.3824C124.182 19.9436 125.166 19.9427 126.125 19.7107C126.87 19.5304 127.501 19.1258 127.901 18.3857C127.917 18.3485 127.934 18.3112 128 18.2448C128.041 18.1608 128.083 18.0768 128.135 17.9816C128.135 17.9816 128.137 17.9662 128.174 17.9319C128.195 17.8691 128.216 17.8063 128.274 17.7207C128.279 17.6929 128.283 17.6652 128.331 17.5989C128.361 17.4871 128.39 17.3753 128.458 17.2196C128.464 17.1244 128.469 17.0291 128.509 16.8851C128.539 16.6042 128.569 16.3234 128.627 15.9731C128.617 15.3285 128.607 14.6839 128.624 13.972C128.572 13.6177 128.519 13.2634 128.478 12.8527C128.465 12.8177 128.453 12.7827 128.457 12.6979C128.412 12.605 128.368 12.5122 128.329 12.3636C128.316 12.3298 128.303 12.296 128.299 12.2083C128.242 12.0947 128.185 11.9811 128.13 11.8255C128.11 11.8075 128.09 11.7895 128.062 11.7209C128.027 11.6642 127.993 11.6075 127.951 11.5064C127.929 11.4876 127.906 11.4688 127.879 11.4055C127.844 11.3621 127.809 11.3188 127.757 11.2248C127.494 10.9747 127.232 10.7246 126.954 10.4319Z" fill="#FCFBFC"/>
<path d="M77.0528 6.79883C77.1363 6.81133 77.2198 6.82384 77.3595 6.84842C77.6174 6.89607 77.819 6.93166 78.0207 6.96724C78.0549 6.97365 78.089 6.98006 78.1709 7.00284C78.6359 7.16997 79.0532 7.32073 79.4705 7.47148C79.6742 7.56599 79.8779 7.66049 80.1092 7.75934C81.2753 8.52854 82.1304 9.5333 82.7196 10.7974C82.7527 10.8937 82.7609 10.9768 82.7862 11.1198C82.8985 11.5396 83.0197 11.8951 83.0831 12.2606C83.178 12.8078 83.2322 13.3622 83.3037 13.9135C83.2902 13.9378 83.2858 13.9636 83.2811 14.0376C83.2834 14.553 83.2953 15.0218 83.3072 15.4906C83.3023 15.5492 83.2974 15.6078 83.2812 15.7195C83.2528 16.8925 83.0585 17.9815 82.7002 19.042C82.6824 19.0643 82.6645 19.0865 82.6254 19.1458C82.5869 19.2451 82.5697 19.3074 82.5525 19.3697C82.1498 19.9581 81.7834 20.5766 81.3307 21.1237C81.0632 21.4469 80.6591 21.657 80.274 21.9461C80.1853 22.0152 80.1388 22.056 80.0924 22.0969C80.0924 22.0969 80.0583 22.096 80.0209 22.1054C79.9304 22.1536 79.8774 22.1924 79.8244 22.2312C79.7987 22.244 79.773 22.2568 79.7024 22.282C79.4719 22.383 79.2862 22.4717 79.1006 22.5604C79.0727 22.5671 79.0448 22.5738 78.9687 22.5919C77.7534 22.94 76.559 23.1502 75.3503 23.0301C74.2929 22.925 73.2488 22.6856 72.1988 22.5056C72.1362 22.4709 72.0736 22.4362 71.9839 22.4021C71.9568 22.4026 71.9476 22.3996 71.9238 22.376C71.8108 22.3167 71.7216 22.281 71.6323 22.2453C71.6323 22.2453 71.6235 22.2397 71.602 22.2175C71.5159 22.1666 71.4514 22.1378 71.3868 22.109C71.3495 22.0816 71.3122 22.0541 71.2503 22.0266C70.6466 21.4667 70.036 20.9351 69.501 20.3361C69.2069 20.0068 69.0401 19.5638 68.8045 19.121C68.7355 18.9535 68.6779 18.8372 68.6204 18.7209C68.6153 18.685 68.6103 18.6491 68.5984 18.5649C68.5492 18.4227 68.5069 18.3289 68.4646 18.2351C68.4645 18.1994 68.4644 18.1638 68.4629 18.0715C68.3763 17.6048 68.2911 17.1948 68.2059 16.7848C68.2039 16.6418 68.2019 16.4988 68.207 16.2981C68.2012 15.5298 68.1882 14.8192 68.1753 14.1086C68.1883 13.7994 68.2014 13.4901 68.2268 13.1235C68.4103 12.3076 68.5814 11.549 68.7525 10.7904C68.9704 10.3753 69.1882 9.96029 69.4512 9.52507C69.5258 9.45004 69.5554 9.39521 69.5849 9.34038C70.2644 8.51148 71.0604 7.83267 72.1088 7.40487C72.2134 7.35871 72.2704 7.32539 72.3275 7.29207C72.3765 7.28075 72.4256 7.26943 72.5182 7.24267C72.6188 7.19552 72.6757 7.16382 72.7327 7.13211C72.8063 7.12233 72.8798 7.11255 73.0041 7.08716C73.1437 7.04307 73.2325 7.01459 73.3214 6.9861C73.3577 6.98574 73.3941 6.98538 73.4844 6.97803C73.7356 6.92326 73.9328 6.87549 74.13 6.82772C74.2213 6.82245 74.3126 6.81718 74.4558 6.81333C75.356 6.80945 76.2044 6.80414 77.0528 6.79883ZM78.2257 19.0369C78.2549 18.9821 78.284 18.9274 78.341 18.8546C78.341 18.8546 78.3483 18.8223 78.3957 18.8043C78.4211 18.7462 78.4465 18.6881 78.5082 18.5858C78.6073 18.3594 78.7064 18.1329 78.8524 17.8711C78.9369 17.3426 79.0213 16.814 79.1248 16.2345C79.1219 16.1985 79.119 16.1626 79.1543 16.0735C79.1429 15.287 79.1315 14.5004 79.1312 13.6499C79.1192 13.5648 79.1072 13.4798 79.1212 13.3299C79.0843 13.1182 79.0474 12.9064 79.0206 12.6544C79.0103 12.6295 79 12.6047 79.0127 12.5492C78.9912 12.5073 78.9698 12.4654 78.9497 12.3682C78.9382 12.3339 78.9268 12.2996 78.9292 12.2072C78.7635 11.8363 78.5978 11.4653 78.418 11.042C76.7279 8.91473 73.6376 9.36347 72.5975 11.913C72.5915 11.9767 72.5854 12.0405 72.543 12.1595C72.5094 12.3532 72.4758 12.5469 72.4107 12.7757C72.4076 12.8207 72.4044 12.8658 72.3755 12.9588C72.3765 12.995 72.3776 13.0311 72.3402 13.0935C72.3383 13.1656 72.3363 13.2376 72.3107 13.3727C72.3172 14.3985 72.3237 15.4243 72.2993 16.4915C72.3273 16.5848 72.3553 16.6782 72.3825 16.8268C72.3947 16.8609 72.4068 16.8951 72.3982 16.9714C72.4124 17.0144 72.4266 17.0574 72.4296 17.165C72.4484 17.2483 72.4671 17.3315 72.476 17.4633C72.5079 17.5173 72.5399 17.5713 72.5708 17.6845C72.6198 17.8103 72.6688 17.9362 72.7136 18.1117C72.7384 18.1701 72.7633 18.2285 72.7974 18.3424C73.7633 20.1209 76.0508 20.6623 77.7283 19.4916C77.7725 19.451 77.8166 19.4104 77.9017 19.3504C77.9402 19.3048 77.9787 19.2592 78.0663 19.2026C78.1042 19.1506 78.1421 19.0985 78.1724 19.0407C78.1724 19.0407 78.1786 19.048 78.2257 19.0369Z" fill="#FBFBFB"/>
<path d="M36.894 22.5946C36.8834 22.5699 36.8675 22.5493 36.8242 22.4973C36.7731 22.3991 36.7439 22.3365 36.7148 22.2739C36.7169 22.1866 36.719 22.0992 36.7388 21.9575C36.7713 21.8093 36.7861 21.7154 36.8009 21.6215C36.9157 21.3219 37.0304 21.0223 37.1587 20.6704C37.2139 20.5228 37.2557 20.4275 37.2976 20.3322C37.3209 20.294 37.3442 20.2559 37.3899 20.1813C37.4239 20.0981 37.4355 20.0513 37.447 20.0045C37.4627 19.9805 37.4783 19.9566 37.5159 19.8935C37.6219 19.6303 37.7119 19.4081 37.7889 19.1816C37.9979 18.5676 38.2014 17.9516 38.407 17.3364C38.4218 17.3124 38.4366 17.2884 38.4804 17.2298C38.5519 17.0047 38.5944 16.8142 38.6368 16.6238C38.8392 16.105 39.0416 15.5863 39.2556 15.0215C39.28 14.9308 39.2928 14.8862 39.3056 14.8417C39.3969 14.6546 39.4883 14.4675 39.6086 14.2398C39.6519 14.1125 39.6662 14.026 39.6806 13.9394C39.7088 13.8958 39.7371 13.8522 39.7864 13.7645C39.8405 13.6036 39.8735 13.4868 39.9187 13.3476C39.9328 13.2912 39.9346 13.2572 39.959 13.2112C39.9971 13.1519 40.0126 13.1046 40.0281 13.0573C40.0432 13.0326 40.0584 13.008 40.0953 12.9453C40.2036 12.6352 40.2902 12.3632 40.3768 12.0912C40.388 12.0667 40.3993 12.0422 40.4304 11.9823C40.7317 11.1577 41.013 10.3684 41.2944 9.57918C41.3211 9.53536 41.3479 9.49154 41.3981 9.40813C41.4295 9.30372 41.4374 9.23892 41.4453 9.17412C41.4864 9.08868 41.5274 9.00325 41.5883 8.87048C41.6393 8.72533 41.6705 8.62752 41.7017 8.52971C41.7557 8.40744 41.8097 8.28517 41.8853 8.1153C41.9248 7.98032 41.9428 7.89294 41.9608 7.80555C41.9915 7.74384 42.0222 7.68213 42.0712 7.57899C42.0996 7.49201 42.1098 7.44646 42.12 7.40091C42.1374 7.37806 42.1548 7.35521 42.1958 7.29476C42.235 7.16965 42.2507 7.08213 42.2665 6.99461C42.2931 6.95064 42.3197 6.90667 42.3671 6.81876C42.4097 6.68818 42.4315 6.60155 42.4533 6.51493C42.4751 6.46857 42.497 6.42221 42.5336 6.3362C42.5689 6.23432 42.5894 6.17208 42.61 6.10984C42.638 6.04081 42.6659 5.97178 42.7081 5.85879C42.7423 5.75255 42.7623 5.69027 42.7823 5.62798C42.7962 5.60269 42.81 5.57739 42.843 5.51432C42.8853 5.39136 42.9084 5.30617 42.9315 5.22098C42.953 5.17507 42.9745 5.12916 43.0167 5.0421C43.1641 4.61664 43.2909 4.23233 43.4176 3.84802C43.4336 3.82467 43.4496 3.80133 43.4894 3.74458C43.5227 3.64719 43.5321 3.58321 43.5415 3.51923C43.6014 3.37845 43.6613 3.23767 43.7462 3.05618C43.7786 2.96825 43.7859 2.92103 43.7933 2.87381C43.8459 2.75033 43.8985 2.62685 43.9753 2.46063C44.0073 2.35413 44.0151 2.29038 44.0228 2.22663C44.0424 2.19887 44.0619 2.17112 44.1105 2.11107C44.1655 2.02162 44.1914 1.96447 44.2172 1.90732C44.2725 1.86816 44.3277 1.829 44.4243 1.75849C44.6187 1.6809 44.7719 1.59463 44.9249 1.59473C46.207 1.59556 47.489 1.61225 48.771 1.62416C48.8507 1.66752 48.9304 1.71088 49.0473 1.78325C49.1371 1.8552 49.1898 1.89814 49.2425 1.94108C49.2425 1.94108 49.2443 1.97618 49.2616 2.01118C49.3138 2.10403 49.3486 2.16187 49.3835 2.21972C49.3903 2.24519 49.397 2.27067 49.4212 2.33466C49.4732 2.45726 49.508 2.54135 49.5428 2.62544C49.5475 2.65129 49.5523 2.67715 49.5765 2.73529C49.619 2.80558 49.642 2.84359 49.665 2.88161C49.664 2.92009 49.663 2.95858 49.6781 3.04566C49.7411 3.1841 49.7881 3.27394 49.8351 3.36379C49.8427 3.41062 49.8504 3.45745 49.8787 3.54577C49.936 3.67247 49.9725 3.75768 50.0091 3.84289C50.0218 3.89028 50.0346 3.93767 50.0671 4.02941C50.1737 4.29192 50.2604 4.51008 50.3471 4.72824C50.3339 4.75571 50.3375 4.78076 50.3732 4.84265C50.4333 4.98877 50.478 5.09564 50.5227 5.20251C50.539 5.27281 50.5552 5.34311 50.5827 5.46126C50.6406 5.60173 50.6872 5.69435 50.7339 5.78696C50.7611 5.87765 50.7883 5.96833 50.8259 6.1051C50.864 6.2069 50.8918 6.26262 50.9195 6.31833C50.9437 6.39791 50.968 6.47749 50.9964 6.59724C51.0554 6.7453 51.1104 6.85317 51.1654 6.96104C51.1751 7.01213 51.1848 7.06323 51.2032 7.15941C51.2418 7.26241 51.2717 7.32032 51.3016 7.37824C51.3581 7.53326 51.4146 7.68828 51.4776 7.88688C51.5344 8.04174 51.5845 8.15302 51.6347 8.26429C51.8008 8.71968 51.9669 9.17506 52.1595 9.67204C52.2084 9.75161 52.2309 9.78958 52.2533 9.82756C52.2504 9.86608 52.2475 9.90459 52.2608 9.96738C52.4168 10.3557 52.5566 10.7198 52.7176 11.1028C52.8912 11.5861 53.0436 12.0504 53.2159 12.5733C53.508 13.3298 53.7802 14.0277 54.0524 14.7255C54.2045 15.187 54.3567 15.6485 54.5348 16.1582C54.6056 16.3056 54.6505 16.4047 54.6953 16.5039C54.7019 16.5318 54.7084 16.5596 54.7317 16.6016C54.825 16.8357 54.9015 17.0557 54.999 17.2944C55.0402 17.3842 55.0603 17.4553 55.094 17.575C55.1342 17.6799 55.1609 17.7363 55.1876 17.7927C55.3047 18.0903 55.4219 18.3879 55.5727 18.7202C55.6018 18.7804 55.6074 18.8033 55.6231 18.8237C55.6518 18.9408 55.6806 19.0579 55.7386 19.1881C55.7724 19.2948 55.777 19.3884 55.811 19.531C56.112 20.2833 56.3836 20.9866 56.6551 21.69C56.6333 21.7099 56.6289 21.7331 56.6519 21.7963C56.621 22.0886 56.5801 22.3443 56.5393 22.6C56.5393 22.6 56.5283 22.599 56.5055 22.6099C56.4397 22.6646 56.3965 22.7085 56.3534 22.7524C56.3392 22.7526 56.3251 22.7528 56.2586 22.765C55.1535 22.7595 54.1008 22.7419 53.0481 22.7244C52.9195 22.5844 52.7908 22.4444 52.6349 22.2631C52.5772 22.1625 52.5469 22.103 52.5166 22.0436C52.5371 22.02 52.5388 21.9951 52.5052 21.9284C52.4413 21.7798 52.3941 21.6718 52.3468 21.5637C52.3444 21.5372 52.342 21.5108 52.3199 21.4514C52.2779 21.3806 52.2554 21.3427 52.233 21.3047C52.2182 21.2349 52.2034 21.1652 52.1672 21.0494C52.1082 20.919 52.0706 20.8347 52.0329 20.7503C51.9927 20.6278 51.9525 20.5053 51.8961 20.3593C51.8477 20.2396 51.8154 20.1434 51.7649 20.0287C51.7137 19.9207 51.6806 19.8312 51.6343 19.6954C51.5936 19.5952 51.5662 19.5414 51.5387 19.4876C51.4726 19.3037 51.4065 19.1198 51.3293 18.8871C51.2893 18.7812 51.2603 18.7239 51.2314 18.6667C51.0584 18.6082 50.8857 18.4992 50.7125 18.4986C47.9289 18.4878 45.1454 18.4909 42.3024 18.5154C42.2275 18.6021 42.2121 18.6643 42.1966 18.7266C42.1173 18.9042 42.038 19.0818 41.9333 19.3015C41.9014 19.4072 41.8948 19.4708 41.8882 19.5345C41.8053 19.7143 41.7223 19.8941 41.6161 20.1148C41.5864 20.2178 41.5799 20.28 41.5734 20.3421C41.5337 20.4101 41.4941 20.4781 41.4387 20.5917C41.3869 20.7526 41.3507 20.8679 41.3146 20.9831C41.2593 21.1124 41.204 21.2416 41.1285 21.4103C41.0945 21.5115 41.0807 21.5732 41.0669 21.6349C41.0361 21.7044 41.0053 21.774 40.9557 21.8874C40.888 22.0461 40.839 22.161 40.7901 22.2759C40.7297 22.3556 40.6693 22.4354 40.5816 22.5567C40.4858 22.6468 40.4172 22.6953 40.3486 22.7439C39.3288 22.7544 38.3089 22.765 37.234 22.757C37.0839 22.6905 36.989 22.6426 36.894 22.5946ZM48.0078 9.252C47.9942 9.23011 47.9806 9.20822 47.9847 9.14224C47.8366 8.78127 47.6885 8.42031 47.5472 8.00136C47.5318 7.96695 47.5163 7.93255 47.5138 7.84769C47.4658 7.7576 47.4178 7.6675 47.3756 7.52967C47.3544 7.48933 47.3333 7.44899 47.315 7.34931C47.2708 7.24198 47.2267 7.13465 47.1844 7.01129C47.1844 7.01129 47.1732 6.99966 47.1752 6.94504C47.1349 6.8858 47.0946 6.82655 47.062 6.70973C47.0484 6.67494 47.0349 6.64015 47.032 6.55501C46.985 6.46459 46.938 6.37417 46.8992 6.23025C46.8583 6.13403 46.8173 6.03781 46.7694 5.8838C46.7078 5.889 46.5998 5.87886 46.5922 5.90188C46.5431 6.05056 46.516 6.20647 46.4486 6.40885C46.4455 6.44711 46.4424 6.48538 46.4022 6.5443C46.3773 6.61879 46.3525 6.69328 46.299 6.79117C46.288 6.81782 46.2935 6.84046 46.2759 6.90279C46.0934 7.42154 45.9109 7.9403 45.6984 8.49081C45.6938 8.51884 45.6893 8.54687 45.6384 8.61129C45.5545 8.88341 45.4707 9.15553 45.3401 9.47116C45.2099 9.81645 45.0771 10.1608 44.9498 10.5072C44.5592 11.5705 44.1697 12.6343 43.7819 13.6986C43.6289 14.1185 43.4818 14.5404 43.3205 14.9935C45.6318 14.9935 47.8626 14.9935 50.1312 14.9935C50.0388 14.7447 49.9671 14.5462 49.8915 14.3491C49.5204 13.3823 49.1483 12.416 48.7972 11.405C48.6919 11.1379 48.5866 10.8708 48.4894 10.5543C48.4701 10.5288 48.4509 10.5032 48.4347 10.4156C48.2866 10.0401 48.1385 9.66462 48.0078 9.252Z" fill="#FBFBFB"/>
<path d="M115.184 22.4369C115.173 22.4454 115.161 22.454 115.121 22.4887C115.059 22.5644 115.027 22.6139 114.994 22.6633C114.994 22.6633 114.996 22.6661 114.995 22.6645C114.586 22.6951 114.178 22.7432 113.769 22.7558C113.235 22.7722 112.7 22.7834 112.167 22.7499C111.947 22.736 111.733 22.6006 111.488 22.5108C111.424 22.4422 111.387 22.3833 111.343 22.2669C111.34 20.8376 111.349 19.4658 111.349 18.094C111.348 14.5572 111.342 11.0204 111.338 7.48354C111.411 7.38061 111.484 7.27768 111.609 7.16154C111.754 7.10104 111.846 7.05375 111.938 7.00645C112.05 7.0061 112.162 7.00574 112.318 7.02091C112.408 7.02478 112.456 7.01312 112.503 7.00146C113.178 7.00451 113.853 7.00756 114.584 7.02711C114.71 7.05423 114.781 7.06484 114.851 7.07544C115.233 7.23351 115.263 7.55818 115.263 7.91078C115.261 10.4801 115.265 13.0494 115.264 15.6187C115.264 17.8114 115.26 20.004 115.24 22.2493C115.21 22.3469 115.197 22.3919 115.184 22.4369Z" fill="#FAFAFA"/>
<path d="M111.304 1.14926C111.355 1.0806 111.401 1.03726 111.45 0.969788C111.453 0.945646 111.453 0.945524 111.484 0.939003C111.654 0.888965 111.793 0.808397 111.932 0.807862C112.934 0.803995 113.935 0.816334 114.937 0.823537C114.998 0.860495 115.058 0.897453 115.142 0.94536C115.201 1.00912 115.236 1.06192 115.295 1.11969C115.353 1.31702 115.415 1.50898 115.418 1.70183C115.428 2.39418 115.419 3.08682 115.402 3.83698C115.367 3.96124 115.347 4.02786 115.327 4.09448C115.259 4.16516 115.191 4.23585 115.08 4.32485C114.974 4.37329 114.911 4.40341 114.848 4.43353C113.848 4.43251 112.849 4.43148 111.792 4.4159C111.666 4.38203 111.599 4.36272 111.531 4.34342C111.486 4.29833 111.441 4.25325 111.374 4.16983C111.291 4.02391 111.232 3.91635 111.172 3.80878C111.175 3.02808 111.178 2.24737 111.181 1.43207C111.22 1.32318 111.26 1.24888 111.304 1.14926Z" fill="#FAFAFA"/>
<path d="M14.2202 9.64018C14.2076 9.61221 14.1951 9.58423 14.1694 9.5145C14.1229 9.42156 14.0896 9.37039 14.0562 9.31921C14.0436 9.29083 14.031 9.26246 14.0051 9.1924C13.9565 9.10232 13.9211 9.05392 13.8857 9.00553C13.8408 8.91266 13.7959 8.81979 13.719 8.69798C13.6712 8.64865 13.6549 8.62865 13.6382 8.60905C13.4322 8.2226 13.2262 7.83616 13.0103 7.40087C12.972 7.33211 12.9437 7.31221 12.9153 7.2923C12.9049 7.24575 12.8946 7.1992 12.8597 7.14494C12.4612 6.39172 12.0899 5.64493 11.7128 4.90104C11.1624 3.81524 10.5945 2.73806 10.0616 1.64382C9.83647 1.18167 9.92828 0.729231 10.3316 0.315509C10.6659 0.206826 10.9511 0.0815663 11.2443 0.0582291C11.8498 0.0100474 12.4596 0.0161986 13.0676 0C14.729 0.00376178 16.3903 0.00752371 18.1063 0.0285195C18.4318 0.119439 18.7025 0.193125 18.9732 0.266811C18.9732 0.266811 19.0017 0.289142 19.0228 0.321356C19.0971 0.389379 19.1502 0.425189 19.2034 0.460998C19.7597 1.49141 20.3186 2.52036 20.8708 3.55297C21.0772 3.9391 21.2677 4.33378 21.4892 4.73942C21.6329 5.0121 21.753 5.26991 21.9097 5.57121C22.0783 5.818 22.21 6.02132 22.3418 6.22463C22.3657 6.31026 22.3897 6.39589 22.4357 6.5257C22.495 6.62647 22.5323 6.68306 22.5696 6.73966C22.5766 6.7655 22.5836 6.79135 22.6047 6.85402C22.6601 6.94272 22.7013 6.9946 22.7425 7.04648C22.7425 7.04648 22.7399 7.0735 22.7505 7.1069C22.8085 7.21743 22.8558 7.29455 22.9032 7.37168C22.9032 7.37168 22.9022 7.39787 22.9134 7.43064C22.9713 7.54061 23.0178 7.6178 23.0644 7.695C23.0644 7.695 23.0645 7.72191 23.0778 7.75288C23.1374 7.85755 23.1837 7.93125 23.23 8.00496C23.23 8.00496 23.227 8.03838 23.2408 8.0729C23.2998 8.18354 23.3449 8.25966 23.3901 8.33578C23.3901 8.33578 23.3898 8.36618 23.4059 8.39722C23.461 8.48498 23.4998 8.54171 23.5386 8.59843C23.5393 8.62499 23.54 8.65155 23.5615 8.71478C23.6225 8.80728 23.6626 8.86311 23.7026 8.91894C23.7063 8.94633 23.71 8.97373 23.7363 9.03643C23.7956 9.12641 23.8325 9.18109 23.8693 9.23576C23.8739 9.26442 23.8786 9.29308 23.9064 9.36083C24.0733 9.66238 24.2169 9.92482 24.3605 10.1873C24.3605 10.1873 24.3596 10.2197 24.3767 10.2529C24.4301 10.344 24.4664 10.4018 24.5027 10.4596C24.5027 10.4596 24.507 10.4716 24.5154 10.5005C24.5576 10.5647 24.5914 10.6001 24.6252 10.6355C24.6348 10.6821 24.6443 10.7288 24.6769 10.8149C24.7388 10.9132 24.7776 10.9721 24.8165 11.0309C24.802 11.0586 24.8057 11.0836 24.8472 11.1412C24.9043 11.2356 24.9416 11.2946 24.9789 11.3536C24.9843 11.3786 24.9896 11.4036 25.0153 11.4638C25.073 11.5568 25.1106 11.6145 25.1481 11.6723C25.1553 11.6982 25.1626 11.7241 25.1903 11.7875C25.5742 12.5161 25.9376 13.207 26.301 13.8979C26.301 13.8979 26.2971 13.9313 26.3113 13.9671C26.3635 14.0609 26.4016 14.1188 26.4396 14.1767C26.4363 14.2051 26.4443 14.23 26.4809 14.2878C26.5338 14.382 26.5693 14.4396 26.6049 14.4971C26.654 14.6028 26.7031 14.7084 26.7771 14.8535C26.8403 14.9519 26.8787 15.0108 26.9172 15.0698C26.9205 15.0948 26.9239 15.1199 26.9488 15.1798C27.0086 15.273 27.0467 15.3313 27.0848 15.3895C27.091 15.4149 27.0972 15.4403 27.1237 15.5012C27.1802 15.5938 27.2163 15.651 27.2524 15.7082C27.2524 15.7082 27.2547 15.7211 27.2652 15.755C27.4349 16.0759 27.5941 16.3628 27.7533 16.6497C27.7533 16.6497 27.7502 16.6816 27.7649 16.7152C27.8265 16.8186 27.8734 16.8883 27.9203 16.958C27.9203 16.958 27.9185 16.9957 27.9324 17.0353C28.0177 17.1993 28.0891 17.3238 28.1605 17.4483C28.1873 17.5087 28.2141 17.569 28.256 17.6731C28.3099 17.773 28.3488 17.8292 28.3877 17.8854C28.3877 17.8854 28.3894 17.9013 28.3986 17.935C28.5083 18.157 28.6088 18.3451 28.7093 18.5333C28.7093 18.5333 28.7121 18.5482 28.7223 18.5789C28.7738 18.6682 28.8151 18.7269 28.8564 18.7855C28.8399 18.812 28.8419 18.8371 28.8847 18.8955C28.9457 18.9887 28.9846 19.0471 29.0235 19.1054C29.0276 19.1312 29.0317 19.1571 29.0591 19.2172C29.1181 19.3094 29.1539 19.3673 29.1896 19.4252C29.1949 19.4516 29.2001 19.4779 29.2283 19.5388C29.2876 19.6285 29.3241 19.6837 29.3606 19.7389C29.3606 19.7389 29.3587 19.757 29.3689 19.7904C29.4272 19.9027 29.4754 19.9815 29.5236 20.0604C29.5327 20.0891 29.5419 20.1179 29.5721 20.1797C29.6228 20.2607 29.6523 20.3085 29.6819 20.3564C29.6819 20.3564 29.688 20.3477 29.6854 20.3769C29.7319 20.484 29.781 20.562 29.8302 20.6399C29.8246 20.6678 29.8311 20.6925 29.8676 20.7507C29.9231 20.8446 29.9608 20.9018 29.9985 20.959C30.0766 21.1622 30.1798 21.3596 30.2277 21.5697C30.3397 22.0617 30.1414 22.4339 29.6922 22.7293C29.6181 22.7818 29.5809 22.8093 29.5437 22.8367C29.5065 22.8412 29.4692 22.8457 29.4076 22.865C26.9222 22.8838 24.4612 22.8904 22.0002 22.887C21.8168 22.8867 21.6335 22.8144 21.4173 22.7739C20.9457 22.4987 20.6733 22.0928 20.4467 21.6391C20.0464 20.838 19.6272 20.0464 19.1889 19.2084C19.122 19.1336 19.0822 19.1012 19.0424 19.0687C18.966 18.9421 18.8895 18.8154 18.812 18.6376C18.6779 18.2929 18.5566 17.9933 18.4099 17.7067C17.7562 16.429 17.0952 15.155 16.4354 13.8556C16.3923 13.785 16.3506 13.7383 16.3094 13.6747C16.3099 13.6577 16.2898 13.6302 16.2853 13.6012C16.1774 13.4034 16.0739 13.2346 15.9507 13.0489C15.9091 12.9866 15.8872 12.9413 15.884 12.8931C15.8719 12.8402 15.841 12.7902 15.8066 12.7137C15.7869 12.656 15.7708 12.6247 15.7598 12.5698C15.7276 12.5015 15.6902 12.4568 15.6512 12.4139C15.6495 12.4157 15.6531 12.4125 15.6562 12.3854C15.6134 12.2845 15.5674 12.2108 15.5215 12.1371C15.5089 12.1109 15.4962 12.0848 15.479 12.0165C15.4362 11.9213 15.3981 11.8682 15.3599 11.8151C15.3479 11.7884 15.3358 11.7617 15.3168 11.6931C15.2718 11.5988 15.2337 11.5464 15.1956 11.494C15.185 11.4667 15.1744 11.4394 15.1559 11.3663C15.0559 11.163 14.9637 11.0055 14.8715 10.8479C14.8173 10.7387 14.763 10.6295 14.6921 10.4749C14.634 10.3799 14.5925 10.3302 14.5511 10.2805C14.5448 10.2517 14.5384 10.2228 14.5181 10.1526C14.4665 10.0595 14.4288 10.0079 14.3911 9.95631C14.3792 9.92908 14.3673 9.90185 14.3398 9.83419C14.2895 9.74258 14.2548 9.69138 14.2202 9.64018Z" fill="#FCFCFD"/>
<path d="M12.7015 21.8551C12.7549 21.8772 12.7788 21.8905 12.8125 21.9217C13.6414 22.6509 14.6144 22.9345 15.6771 22.9474C16.6033 22.9587 17.5296 22.9506 18.4559 22.9503C19.215 22.9501 19.4223 23.271 19.0902 23.9556C18.9035 24.3403 18.6938 24.7139 18.4986 25.1238C18.4109 25.3052 18.3191 25.4555 18.2274 25.6336C18.002 26.0789 17.7764 26.4963 17.5278 26.9574C17.4373 27.1481 17.3699 27.2951 17.3025 27.4421C17.0069 27.9739 16.7351 28.5209 16.4083 29.0328C16.1246 29.477 15.7785 29.8814 15.4419 30.3353C15.4237 30.3672 15.4045 30.3934 15.4045 30.3934C15.4045 30.3934 15.3887 30.3882 15.3805 30.3877C15.3151 30.4182 15.2581 30.4492 15.1591 30.5109C15.0682 30.581 15.0192 30.6205 14.9701 30.66C14.886 30.6952 14.8019 30.7305 14.6745 30.783C14.542 30.8446 14.4527 30.889 14.3634 30.9333C14.3237 30.9358 14.284 30.9382 14.1933 30.9523C14.0008 31.0079 13.8593 31.0519 13.7177 31.0959C13.3865 31.0929 13.0553 31.09 12.6642 31.078C12.1922 30.9419 11.78 30.8148 11.3679 30.6877C11.204 30.5742 11.0401 30.4608 10.8413 30.3202C10.7518 30.257 10.6971 30.2208 10.6425 30.1847C10.6425 30.1847 10.6411 30.1875 10.6354 30.1635C10.5803 30.1003 10.5309 30.0612 10.4815 30.0221C10.4815 30.0221 10.4793 30.0256 10.476 30.0005C10.4239 29.9342 10.375 29.893 10.3262 29.8519C10.3262 29.8519 10.3222 29.8593 10.3213 29.8302C10.2199 29.6676 10.1195 29.5341 10.019 29.4006C10.0126 29.3748 10.0063 29.349 9.98344 29.2841C9.87882 29.1063 9.79065 28.9677 9.70248 28.8291C9.70263 28.8035 9.70277 28.7779 9.68255 28.7161C9.62157 28.6222 9.58094 28.5645 9.54032 28.5069C9.53663 28.4807 9.53295 28.4545 9.50657 28.3938C9.44832 28.3012 9.41276 28.2432 9.3772 28.1851C9.3772 28.1851 9.37782 28.1749 9.37357 28.1413C9.31541 28.0283 9.26151 27.9488 9.2076 27.8693C9.2076 27.8693 9.2099 27.8541 9.2017 27.8199C9.09757 27.6203 9.00164 27.4549 8.9057 27.2895C8.91221 27.2621 8.90592 27.2381 8.86744 27.1817C8.81156 27.087 8.77505 27.028 8.73855 26.9689C8.74489 26.9407 8.73821 26.9159 8.69945 26.8591C8.64264 26.7664 8.6049 26.7093 8.56716 26.6522C8.56716 26.6522 8.56445 26.6396 8.55811 26.6105C8.51973 26.5453 8.48771 26.5093 8.45568 26.4732C8.13692 25.8604 7.88487 25.1985 7.48042 24.6487C7.08601 24.1126 6.5358 23.6911 6.01857 23.1883C5.92026 23.131 5.85738 23.1047 5.79449 23.0784C5.79449 23.0784 5.78127 23.055 5.75638 23.0293C5.66895 22.9858 5.60641 22.968 5.54387 22.9502C5.4997 22.9254 5.45554 22.9005 5.36991 22.8517C4.99559 22.7408 4.66274 22.6537 4.32989 22.5666C4.29641 22.5541 4.26294 22.5416 4.1756 22.512C2.84583 22.4835 1.56993 22.4723 0.29402 22.461C0.209139 22.388 0.124258 22.315 0.0269874 22.1857C0.00973247 21.9574 0.00486627 21.7854 0 21.6134C0.073769 21.4806 0.147539 21.3478 0.252681 21.1782C0.38761 20.9231 0.491165 20.7048 0.594721 20.4865C0.711692 20.2544 0.828664 20.0223 0.981272 19.7534C1.04088 19.6523 1.06485 19.5882 1.08881 19.5241C1.10885 19.5062 1.12888 19.4883 1.16624 19.4322C1.20836 19.3286 1.23315 19.2633 1.25794 19.198C1.36758 19.0073 1.47723 18.8167 1.62122 18.593C1.67404 18.4997 1.69251 18.4393 1.71099 18.3789C1.72871 18.354 1.74643 18.3291 1.79678 18.2729C1.90697 18.0744 1.98454 17.9073 2.0621 17.7402C2.07679 17.7152 2.09148 17.6901 2.1306 17.6321C2.17674 17.5381 2.19846 17.477 2.22018 17.4159C2.23503 17.3908 2.24987 17.3657 2.29008 17.3083C2.34015 17.2158 2.36484 17.1557 2.38953 17.0956C2.4035 17.0702 2.41746 17.0447 2.45571 16.9876C2.50462 16.8952 2.52924 16.8344 2.55385 16.7736C2.55385 16.7736 2.57716 16.7536 2.60556 16.7275C2.66169 16.618 2.68941 16.5347 2.71713 16.4514C2.71713 16.4514 2.73915 16.4296 2.76602 16.4053C2.81251 16.3208 2.83212 16.2606 2.85172 16.2003C2.85172 16.2003 2.87377 16.1692 2.90421 16.1465C2.95657 16.0675 2.97849 16.0112 3.0004 15.9549C3.07476 15.8283 3.14912 15.7016 3.22473 15.5474C3.32916 15.4441 3.42824 15.362 3.5362 15.294C4.02461 14.9862 4.51344 14.6789 5.00837 14.3818C5.06677 14.3468 5.16367 14.3758 5.29416 14.3935C5.44149 14.3845 5.53738 14.3571 5.63326 14.3298C5.69083 14.326 5.74839 14.3221 5.8662 14.327C6.20682 14.3521 6.48718 14.3684 6.76754 14.3847C6.78814 14.4025 6.81204 14.4115 6.87819 14.4282C7.00512 14.4522 7.09312 14.4596 7.18112 14.467C7.22762 14.492 7.27412 14.5169 7.35816 14.5664C7.45897 14.6029 7.52224 14.6149 7.58551 14.6268C8.68495 15.1121 9.22698 16.0771 9.73207 17.0866C10.2605 18.1427 10.7807 19.2068 11.3829 20.2208C11.7329 20.81 12.2371 21.3076 12.7015 21.8551Z" fill="#FCFCFC"/>
</svg>
