<svg width="14" height="14" viewBox="0 0 14 14" fill="none" xmlns="http://www.w3.org/2000/svg">
<path d="M13.9623 7.00018C13.9623 10.8458 10.8449 13.9633 6.99925 13.9633C3.15361 13.9633 0.0361328 10.8458 0.0361328 7.00018C0.0361328 3.15458 3.15361 0.0371094 6.99925 0.0371094C10.8448 0.0371094 13.9623 3.15458 13.9623 7.00018Z" fill="url(#paint0_linear_79_7222)"/>
<path d="M4.34194 8.64799C4.38946 8.60047 4.45479 8.57275 4.52409 8.57275H10.8084C10.9232 8.57275 10.9807 8.71135 10.8995 8.79253L9.65806 10.0339C9.61055 10.0815 9.54521 10.1092 9.47591 10.1092H3.19159C3.07676 10.1092 3.01934 9.97059 3.10052 9.88941L4.34194 8.64799Z" fill="black"/>
<path d="M4.34194 4.01274C4.39144 3.96522 4.45677 3.9375 4.52409 3.9375H10.8084C10.9232 3.9375 10.9807 4.0761 10.8995 4.15727L9.65806 5.39869C9.61055 5.44621 9.54521 5.47393 9.47591 5.47393H3.19159C3.07676 5.47393 3.01934 5.33533 3.10052 5.25416L4.34194 4.01274Z" fill="black"/>
<path d="M9.65806 6.31498C9.61055 6.26747 9.54521 6.23975 9.47591 6.23975H3.19159C3.07676 6.23975 3.01934 6.37834 3.10052 6.45952L4.34194 7.70094C4.38946 7.74846 4.45479 7.77618 4.52409 7.77618H10.8084C10.9232 7.77618 10.9807 7.63758 10.8995 7.5564L9.65806 6.31498Z" fill="black"/>
<defs>
<linearGradient id="paint0_linear_79_7222" x1="6.99921" y1="0.0371094" x2="6.99921" y2="13.9633" gradientUnits="userSpaceOnUse">
<stop stop-color="#0DF2A9"/>
<stop offset="1" stop-color="#D725FD"/>
</linearGradient>
</defs>
</svg>